<svg width="121" height="24" viewBox="0 0 121 24" fill="none" xmlns="http://www.w3.org/2000/svg">
<g clip-path="url(#clip0_1051_9808)">
<path d="M8.98773 24C7.22053 24 5.65861 23.6251 4.30197 22.8843C2.94533 22.1346 1.89215 21.1171 1.13351 19.8319C0.374861 18.5288 0 17.0562 0 15.3871C0 14.0662 0.214206 12.8613 0.642618 11.7724C1.07103 10.6835 1.6601 9.73747 2.41874 8.94312C3.17739 8.14877 4.07884 7.52401 5.14095 7.08667C6.19413 6.64933 7.35441 6.43512 8.61287 6.43512C9.7196 6.43512 10.7549 6.64933 11.7189 7.07774C12.6828 7.50615 13.5128 8.0863 14.2179 8.81817C14.923 9.55004 15.4585 10.4247 15.8334 11.4422C16.2083 12.4596 16.3868 13.5575 16.36 14.7534L16.3243 16.1279H1.43697L0.705095 13.4414H13.0219L12.5132 13.9859V13.2808C12.4507 12.6203 12.2365 12.0402 11.8706 11.5403C11.5047 11.0405 11.0405 10.6478 10.4782 10.3533C9.91595 10.0677 9.29119 9.9249 8.60394 9.9249C7.55969 9.9249 6.67609 10.1302 5.96207 10.5318C5.24805 10.9334 4.71253 11.5225 4.3466 12.2722C3.98066 13.0309 3.80216 13.9769 3.80216 15.1015C3.80216 16.2261 4.03421 17.1365 4.4894 17.9487C4.94459 18.7609 5.59613 19.3856 6.44403 19.823C7.28301 20.2603 8.27371 20.4835 9.40722 20.4835C10.1926 20.4835 10.9245 20.3585 11.585 20.0997C12.2454 19.8408 12.9595 19.3856 13.727 18.7252L15.6817 21.4474C15.1015 21.9829 14.45 22.4381 13.7181 22.804C12.9862 23.1789 12.2097 23.4734 11.3975 23.6876C10.5853 23.9018 9.78208 24.0089 8.99665 24.0089L8.98773 24Z" fill="url(#paint0_linear_1051_9808)"/>
<path d="M20.1982 23.6787V6.81886H24.0361L24.0986 10.273L23.3667 10.6568C23.5809 9.88915 23.9915 9.19298 24.6162 8.55929C25.2321 7.93452 25.9729 7.42578 26.8208 7.04199C27.6776 6.65821 28.5523 6.46185 29.4448 6.46185C30.7211 6.46185 31.7921 6.72069 32.6579 7.22943C33.5236 7.73817 34.1752 8.50574 34.6125 9.53214C35.0499 10.5586 35.2641 11.8349 35.2641 13.37V23.6698H31.328V13.6646C31.328 12.8077 31.212 12.1026 30.9799 11.5404C30.7479 10.9781 30.382 10.5586 29.8911 10.2908C29.4002 10.0231 28.8022 9.89808 28.0971 9.92485C27.5259 9.92485 26.9904 10.0141 26.5173 10.1926C26.0354 10.3711 25.6248 10.63 25.2678 10.9602C24.9197 11.2904 24.6341 11.6653 24.4377 12.0937C24.2325 12.5221 24.1343 12.9862 24.1343 13.5039V23.6787H20.1982Z" fill="url(#paint1_linear_1051_9808)"/>
<path d="M46.4019 24C45.0185 24 43.76 23.6162 42.6265 22.8486C41.493 22.0811 40.5915 21.0368 39.9043 19.7159C39.226 18.3949 38.8779 16.8866 38.8779 15.2086C38.8779 13.5307 39.217 12.0223 39.9043 10.7014C40.5826 9.38044 41.5108 8.34511 42.689 7.59539C43.8582 6.84567 45.188 6.47974 46.6607 6.47974C47.5175 6.47974 48.294 6.60469 48.9991 6.84567C49.7042 7.09558 50.3201 7.43474 50.8556 7.881C51.3911 8.32726 51.8284 8.84493 52.1854 9.41614C52.5424 9.98736 52.7745 10.6121 52.9084 11.2726L52.0426 11.0495V6.8189H56.0054V23.6787H52.0069V19.6445L52.9352 19.4838C52.7834 20.064 52.5157 20.6173 52.123 21.1618C51.7302 21.7062 51.2394 22.1882 50.6503 22.5987C50.0612 23.0182 49.4097 23.3485 48.6957 23.6073C47.9816 23.8661 47.2141 23.9911 46.4108 23.9911L46.4019 24ZM47.4908 20.5102C48.4101 20.5102 49.2223 20.2871 49.9184 19.8408C50.6235 19.3946 51.168 18.7698 51.5696 17.9665C51.9623 17.1633 52.1587 16.244 52.1587 15.1997C52.1587 14.1555 51.9623 13.2719 51.5696 12.4775C51.1769 11.6921 50.6235 11.0673 49.9184 10.6211C49.2133 10.1748 48.4011 9.95166 47.4908 9.95166C46.5804 9.95166 45.7682 10.1748 45.072 10.6211C44.3758 11.0673 43.8403 11.6921 43.4565 12.4775C43.0728 13.2629 42.8764 14.1733 42.8764 15.1997C42.8764 16.2261 43.0728 17.1633 43.4565 17.9665C43.8403 18.7698 44.3758 19.3946 45.072 19.8408C45.7682 20.2871 46.5715 20.5102 47.4908 20.5102Z" fill="url(#paint2_linear_1051_9808)"/>
<path d="M70.2505 24C69.5008 24 68.769 23.884 68.0549 23.6608C67.3409 23.4377 66.6983 23.1343 66.1182 22.7505C65.538 22.3667 65.065 21.9383 64.6812 21.4563C64.2974 20.9743 64.0386 20.4924 63.9136 20.0015L64.8418 19.582L64.7437 23.6162H60.9326V0H64.8686V10.7192L64.1635 10.3979C64.2706 9.88918 64.5116 9.39829 64.8865 8.9431C65.2613 8.48791 65.7254 8.06843 66.2788 7.69357C66.8322 7.31871 67.4391 7.02417 68.0996 6.80104C68.76 6.57791 69.4294 6.46188 70.1167 6.46188C71.634 6.46188 72.9727 6.83674 74.133 7.57754C75.2933 8.32726 76.2126 9.36259 76.882 10.6835C77.5514 12.0045 77.8906 13.5128 77.8906 15.1908C77.8906 16.8687 77.5603 18.4128 76.8999 19.7337C76.2394 21.0547 75.329 22.0989 74.1687 22.8576C73.0084 23.6162 71.6964 23.9911 70.2505 23.9911V24ZM69.4205 20.5459C70.313 20.5459 71.1163 20.3139 71.8214 19.8587C72.5265 19.4035 73.0799 18.7698 73.4815 17.9665C73.8831 17.1633 74.0884 16.244 74.0884 15.1997C74.0884 14.1554 73.892 13.2718 73.4993 12.4775C73.1066 11.6921 72.5533 11.0673 71.8482 10.621C71.1431 10.1748 70.3309 9.95166 69.4205 9.95166C68.5101 9.95166 67.689 10.1748 66.9928 10.621C66.2967 11.0673 65.7344 11.6921 65.3327 12.4775C64.9311 13.2629 64.7258 14.1733 64.7258 15.1997C64.7258 16.2261 64.9311 17.1633 65.3327 17.9665C65.7344 18.7698 66.2967 19.3946 66.9928 19.8587C67.6979 20.3139 68.5101 20.5459 69.4205 20.5459Z" fill="url(#paint3_linear_1051_9808)"/>
<path d="M81.7998 23.6787V0H85.7716V23.6787H81.7998Z" fill="url(#paint4_linear_1051_9808)"/>
<path d="M98.3471 24C96.5799 24 95.018 23.6251 93.6614 22.8843C92.3048 22.1346 91.2516 21.1171 90.4929 19.8319C89.7343 18.5377 89.3594 17.0651 89.3594 15.405C89.3594 14.084 89.5736 12.8791 90.002 11.7903C90.4304 10.7014 91.0195 9.75528 91.7782 8.96093C92.5368 8.16659 93.4383 7.54182 94.5004 7.10448C95.5535 6.66714 96.7138 6.45294 97.9723 6.45294C99.079 6.45294 100.115 6.66714 101.078 7.09556C102.042 7.52397 102.872 8.10411 103.578 8.83598C104.283 9.56785 104.818 10.4425 105.193 11.46C105.568 12.4775 105.746 13.5753 105.72 14.7713L105.684 16.1458H92.0191L91.2873 13.4593H102.39L101.882 14.0037V13.2986C101.819 12.6382 101.605 12.058 101.239 11.5582C100.873 11.0584 100.409 10.6657 99.8466 10.3711C99.2843 10.0855 98.6595 9.94271 97.9723 9.94271C96.928 9.94271 96.0444 10.148 95.3304 10.5496C94.6164 10.9513 94.0809 11.5404 93.7149 12.2901C93.349 13.0487 93.1705 13.9948 93.1705 15.1194C93.1705 16.244 93.4026 17.1543 93.8577 17.9665C94.3129 18.7787 94.9645 19.4035 95.8124 19.8408C96.6513 20.2782 97.642 20.5013 98.7756 20.5013C99.561 20.5013 100.293 20.3764 100.954 20.1175C101.614 19.8587 102.328 19.4035 103.096 18.743L105.05 21.4652C104.47 22.0007 103.819 22.4559 103.087 22.8219C102.355 23.1967 101.578 23.4913 100.766 23.7055C99.9537 23.9197 99.1504 24.0268 98.365 24.0268L98.3471 24Z" fill="url(#paint5_linear_1051_9808)"/>
<path d="M109.557 23.6787V6.81891H113.431L113.493 12.1919L112.949 10.9781C113.181 10.1212 113.592 9.35369 114.163 8.67537C114.743 7.99705 115.403 7.45261 116.162 7.0599C116.921 6.66719 117.715 6.47083 118.545 6.47083C118.911 6.47083 119.25 6.50653 119.589 6.56901C119.92 6.63148 120.196 6.71181 120.402 6.79214L119.348 11.1119C119.116 10.987 118.822 10.8799 118.483 10.7906C118.144 10.7014 117.795 10.6657 117.456 10.6657C116.921 10.6657 116.421 10.7639 115.939 10.9691C115.457 11.1744 115.038 11.4511 114.672 11.817C114.306 12.183 114.029 12.6025 113.824 13.0844C113.618 13.5664 113.52 14.1019 113.52 14.6999V23.6876H109.557V23.6787Z" fill="url(#paint6_linear_1051_9808)"/>
<mask id="mask0_1051_9808" style="mask-type:alpha" maskUnits="userSpaceOnUse" x="0" y="0" width="121" height="25">
<path d="M8.98773 24C7.22053 24 5.65861 23.6251 4.30197 22.8843C2.94533 22.1346 1.89215 21.1171 1.13351 19.8319C0.374861 18.5288 0 17.0562 0 15.3871C0 14.0662 0.214206 12.8613 0.642618 11.7724C1.07103 10.6835 1.6601 9.73747 2.41874 8.94312C3.17739 8.14877 4.07884 7.52401 5.14095 7.08667C6.19413 6.64933 7.35441 6.43512 8.61287 6.43512C9.7196 6.43512 10.7549 6.64933 11.7189 7.07774C12.6828 7.50615 13.5128 8.0863 14.2179 8.81817C14.923 9.55004 15.4585 10.4247 15.8334 11.4422C16.2083 12.4596 16.3868 13.5575 16.36 14.7534L16.3243 16.1279H1.43697L0.705095 13.4414H13.0219L12.5132 13.9859V13.2808C12.4507 12.6203 12.2365 12.0402 11.8706 11.5403C11.5047 11.0405 11.0405 10.6478 10.4782 10.3533C9.91595 10.0677 9.29119 9.9249 8.60394 9.9249C7.55969 9.9249 6.67609 10.1302 5.96207 10.5318C5.24805 10.9334 4.71253 11.5225 4.3466 12.2722C3.98066 13.0309 3.80216 13.9769 3.80216 15.1015C3.80216 16.2261 4.03421 17.1365 4.4894 17.9487C4.94459 18.7609 5.59613 19.3856 6.44403 19.823C7.28301 20.2603 8.27371 20.4835 9.40722 20.4835C10.1926 20.4835 10.9245 20.3585 11.585 20.0997C12.2454 19.8408 12.9595 19.3856 13.727 18.7252L15.6817 21.4474C15.1015 21.9829 14.45 22.4381 13.7181 22.804C12.9862 23.1789 12.2097 23.4734 11.3975 23.6876C10.5853 23.9018 9.78208 24.0089 8.99665 24.0089L8.98773 24Z" fill="url(#paint7_linear_1051_9808)"/>
<path d="M20.1982 23.6787V6.81886H24.0361L24.0986 10.273L23.3667 10.6568C23.5809 9.88915 23.9915 9.19298 24.6162 8.55929C25.2321 7.93452 25.9729 7.42578 26.8208 7.04199C27.6776 6.65821 28.5523 6.46185 29.4448 6.46185C30.7211 6.46185 31.7921 6.72069 32.6579 7.22943C33.5236 7.73817 34.1752 8.50574 34.6125 9.53214C35.0499 10.5586 35.2641 11.8349 35.2641 13.37V23.6698H31.328V13.6646C31.328 12.8077 31.212 12.1026 30.9799 11.5404C30.7479 10.9781 30.382 10.5586 29.8911 10.2908C29.4002 10.0231 28.8022 9.89808 28.0971 9.92485C27.5259 9.92485 26.9904 10.0141 26.5173 10.1926C26.0354 10.3711 25.6248 10.63 25.2678 10.9602C24.9197 11.2904 24.6341 11.6653 24.4377 12.0937C24.2325 12.5221 24.1343 12.9862 24.1343 13.5039V23.6787H20.1982Z" fill="url(#paint8_linear_1051_9808)"/>
<path d="M46.4019 24C45.0185 24 43.76 23.6162 42.6265 22.8486C41.493 22.0811 40.5915 21.0368 39.9043 19.7159C39.226 18.3949 38.8779 16.8866 38.8779 15.2086C38.8779 13.5307 39.217 12.0223 39.9043 10.7014C40.5826 9.38044 41.5108 8.34511 42.689 7.59539C43.8582 6.84567 45.188 6.47974 46.6607 6.47974C47.5175 6.47974 48.294 6.60469 48.9991 6.84567C49.7042 7.09558 50.3201 7.43474 50.8556 7.881C51.3911 8.32726 51.8284 8.84493 52.1854 9.41614C52.5424 9.98736 52.7745 10.6121 52.9084 11.2726L52.0426 11.0495V6.8189H56.0054V23.6787H52.0069V19.6445L52.9352 19.4838C52.7834 20.064 52.5157 20.6173 52.123 21.1618C51.7302 21.7062 51.2394 22.1882 50.6503 22.5987C50.0612 23.0182 49.4097 23.3485 48.6957 23.6073C47.9816 23.8661 47.2141 23.9911 46.4108 23.9911L46.4019 24ZM47.4908 20.5102C48.4101 20.5102 49.2223 20.2871 49.9184 19.8408C50.6235 19.3946 51.168 18.7698 51.5696 17.9665C51.9623 17.1633 52.1587 16.244 52.1587 15.1997C52.1587 14.1555 51.9623 13.2719 51.5696 12.4775C51.1769 11.6921 50.6235 11.0673 49.9184 10.6211C49.2133 10.1748 48.4011 9.95166 47.4908 9.95166C46.5804 9.95166 45.7682 10.1748 45.072 10.6211C44.3758 11.0673 43.8403 11.6921 43.4565 12.4775C43.0728 13.2629 42.8764 14.1733 42.8764 15.1997C42.8764 16.2261 43.0728 17.1633 43.4565 17.9665C43.8403 18.7698 44.3758 19.3946 45.072 19.8408C45.7682 20.2871 46.5715 20.5102 47.4908 20.5102Z" fill="url(#paint9_linear_1051_9808)"/>
<path d="M70.2505 24C69.5008 24 68.769 23.884 68.0549 23.6608C67.3409 23.4377 66.6983 23.1343 66.1182 22.7505C65.538 22.3667 65.065 21.9383 64.6812 21.4563C64.2974 20.9743 64.0386 20.4924 63.9136 20.0015L64.8418 19.582L64.7437 23.6162H60.9326V0H64.8686V10.7192L64.1635 10.3979C64.2706 9.88918 64.5116 9.39829 64.8865 8.9431C65.2613 8.48791 65.7254 8.06843 66.2788 7.69357C66.8322 7.31871 67.4391 7.02417 68.0996 6.80104C68.76 6.57791 69.4294 6.46188 70.1167 6.46188C71.634 6.46188 72.9727 6.83674 74.133 7.57754C75.2933 8.32726 76.2126 9.36259 76.882 10.6835C77.5514 12.0045 77.8906 13.5128 77.8906 15.1908C77.8906 16.8687 77.5603 18.4128 76.8999 19.7337C76.2394 21.0547 75.329 22.0989 74.1687 22.8576C73.0084 23.6162 71.6964 23.9911 70.2505 23.9911V24ZM69.4205 20.5459C70.313 20.5459 71.1163 20.3139 71.8214 19.8587C72.5265 19.4035 73.0799 18.7698 73.4815 17.9665C73.8831 17.1633 74.0884 16.244 74.0884 15.1997C74.0884 14.1554 73.892 13.2718 73.4993 12.4775C73.1066 11.6921 72.5533 11.0673 71.8482 10.621C71.1431 10.1748 70.3309 9.95166 69.4205 9.95166C68.5101 9.95166 67.689 10.1748 66.9928 10.621C66.2967 11.0673 65.7344 11.6921 65.3327 12.4775C64.9311 13.2629 64.7258 14.1733 64.7258 15.1997C64.7258 16.2261 64.9311 17.1633 65.3327 17.9665C65.7344 18.7698 66.2967 19.3946 66.9928 19.8587C67.6979 20.3139 68.5101 20.5459 69.4205 20.5459Z" fill="url(#paint10_linear_1051_9808)"/>
<path d="M81.7998 23.6787V0H85.7716V23.6787H81.7998Z" fill="url(#paint11_linear_1051_9808)"/>
<path d="M98.3471 24C96.5799 24 95.018 23.6251 93.6614 22.8843C92.3048 22.1346 91.2516 21.1171 90.4929 19.8319C89.7343 18.5377 89.3594 17.0651 89.3594 15.405C89.3594 14.084 89.5736 12.8791 90.002 11.7903C90.4304 10.7014 91.0195 9.75528 91.7782 8.96093C92.5368 8.16659 93.4383 7.54182 94.5004 7.10448C95.5535 6.66714 96.7138 6.45294 97.9723 6.45294C99.079 6.45294 100.115 6.66714 101.078 7.09556C102.042 7.52397 102.872 8.10411 103.578 8.83598C104.283 9.56785 104.818 10.4425 105.193 11.46C105.568 12.4775 105.746 13.5753 105.72 14.7713L105.684 16.1458H92.0191L91.2873 13.4593H102.39L101.882 14.0037V13.2986C101.819 12.6382 101.605 12.058 101.239 11.5582C100.873 11.0584 100.409 10.6657 99.8466 10.3711C99.2843 10.0855 98.6595 9.94271 97.9723 9.94271C96.928 9.94271 96.0444 10.148 95.3304 10.5496C94.6164 10.9513 94.0809 11.5404 93.7149 12.2901C93.349 13.0487 93.1705 13.9948 93.1705 15.1194C93.1705 16.244 93.4026 17.1543 93.8577 17.9665C94.3129 18.7787 94.9645 19.4035 95.8124 19.8408C96.6513 20.2782 97.642 20.5013 98.7756 20.5013C99.561 20.5013 100.293 20.3764 100.954 20.1175C101.614 19.8587 102.328 19.4035 103.096 18.743L105.05 21.4652C104.47 22.0007 103.819 22.4559 103.087 22.8219C102.355 23.1967 101.578 23.4913 100.766 23.7055C99.9537 23.9197 99.1504 24.0268 98.365 24.0268L98.3471 24Z" fill="url(#paint12_linear_1051_9808)"/>
<path d="M109.557 23.6787V6.81891H113.431L113.493 12.1919L112.949 10.9781C113.181 10.1212 113.592 9.35369 114.163 8.67537C114.743 7.99705 115.403 7.45261 116.162 7.0599C116.921 6.66719 117.715 6.47083 118.545 6.47083C118.911 6.47083 119.25 6.50653 119.589 6.56901C119.92 6.63148 120.196 6.71181 120.402 6.79214L119.348 11.1119C119.116 10.987 118.822 10.8799 118.483 10.7906C118.144 10.7014 117.795 10.6657 117.456 10.6657C116.921 10.6657 116.421 10.7639 115.939 10.9691C115.457 11.1744 115.038 11.4511 114.672 11.817C114.306 12.183 114.029 12.6025 113.824 13.0844C113.618 13.5664 113.52 14.1019 113.52 14.6999V23.6876H109.557V23.6787Z" fill="url(#paint13_linear_1051_9808)"/>
</mask>
<g mask="url(#mask0_1051_9808)">
<path style="mix-blend-mode:screen" d="M105.711 49.312C132.945 49.312 155.023 27.2343 155.023 -1.14441e-05C155.023 -27.2343 132.945 -49.312 105.711 -49.312C78.4761 -49.312 56.3984 -27.2343 56.3984 -1.14441e-05C56.3984 27.2343 78.4761 49.312 105.711 49.312Z" fill="url(#paint14_radial_1051_9808)"/>
</g>
</g>
<defs>
<linearGradient id="paint0_linear_1051_9808" x1="-13.1023" y1="19.7873" x2="130.246" y2="-10.2194" gradientUnits="userSpaceOnUse">
<stop stop-color="#1B0051"/>
<stop offset="0.44" stop-color="#3A0079"/>
<stop offset="0.79" stop-color="#4F0093"/>
<stop offset="1" stop-color="#57009D"/>
</linearGradient>
<linearGradient id="paint1_linear_1051_9808" x1="-12.2986" y1="23.6251" x2="131.049" y2="-6.38158" gradientUnits="userSpaceOnUse">
<stop stop-color="#1B0051"/>
<stop offset="0.44" stop-color="#3A0079"/>
<stop offset="0.79" stop-color="#4F0093"/>
<stop offset="1" stop-color="#57009D"/>
</linearGradient>
<linearGradient id="paint2_linear_1051_9808" x1="-11.3623" y1="28.1056" x2="131.987" y2="-1.90108" gradientUnits="userSpaceOnUse">
<stop stop-color="#1B0051"/>
<stop offset="0.44" stop-color="#3A0079"/>
<stop offset="0.79" stop-color="#4F0093"/>
<stop offset="1" stop-color="#57009D"/>
</linearGradient>
<linearGradient id="paint3_linear_1051_9808" x1="-11.3441" y1="28.1859" x2="132.004" y2="-1.82075" gradientUnits="userSpaceOnUse">
<stop stop-color="#1B0051"/>
<stop offset="0.44" stop-color="#3A0079"/>
<stop offset="0.79" stop-color="#4F0093"/>
<stop offset="1" stop-color="#57009D"/>
</linearGradient>
<linearGradient id="paint4_linear_1051_9808" x1="-10.63" y1="31.6043" x2="132.718" y2="1.59763" gradientUnits="userSpaceOnUse">
<stop stop-color="#1B0051"/>
<stop offset="0.44" stop-color="#3A0079"/>
<stop offset="0.79" stop-color="#4F0093"/>
<stop offset="1" stop-color="#57009D"/>
</linearGradient>
<linearGradient id="paint5_linear_1051_9808" x1="-9.35388" y1="37.7092" x2="133.995" y2="7.70248" gradientUnits="userSpaceOnUse">
<stop stop-color="#1B0051"/>
<stop offset="0.44" stop-color="#3A0079"/>
<stop offset="0.79" stop-color="#4F0093"/>
<stop offset="1" stop-color="#57009D"/>
</linearGradient>
<linearGradient id="paint6_linear_1051_9808" x1="-8.78276" y1="40.4314" x2="134.566" y2="10.4247" gradientUnits="userSpaceOnUse">
<stop stop-color="#1B0051"/>
<stop offset="0.44" stop-color="#3A0079"/>
<stop offset="0.79" stop-color="#4F0093"/>
<stop offset="1" stop-color="#57009D"/>
</linearGradient>
<linearGradient id="paint7_linear_1051_9808" x1="-13.1023" y1="19.7873" x2="130.246" y2="-10.2194" gradientUnits="userSpaceOnUse">
<stop stop-color="#1B0051"/>
<stop offset="0.44" stop-color="#3A0079"/>
<stop offset="0.79" stop-color="#4F0093"/>
<stop offset="1" stop-color="#57009D"/>
</linearGradient>
<linearGradient id="paint8_linear_1051_9808" x1="-12.2986" y1="23.6251" x2="131.049" y2="-6.38158" gradientUnits="userSpaceOnUse">
<stop stop-color="#1B0051"/>
<stop offset="0.44" stop-color="#3A0079"/>
<stop offset="0.79" stop-color="#4F0093"/>
<stop offset="1" stop-color="#57009D"/>
</linearGradient>
<linearGradient id="paint9_linear_1051_9808" x1="-11.3623" y1="28.1056" x2="131.987" y2="-1.90108" gradientUnits="userSpaceOnUse">
<stop stop-color="#1B0051"/>
<stop offset="0.44" stop-color="#3A0079"/>
<stop offset="0.79" stop-color="#4F0093"/>
<stop offset="1" stop-color="#57009D"/>
</linearGradient>
<linearGradient id="paint10_linear_1051_9808" x1="-11.3441" y1="28.1859" x2="132.004" y2="-1.82075" gradientUnits="userSpaceOnUse">
<stop stop-color="#1B0051"/>
<stop offset="0.44" stop-color="#3A0079"/>
<stop offset="0.79" stop-color="#4F0093"/>
<stop offset="1" stop-color="#57009D"/>
</linearGradient>
<linearGradient id="paint11_linear_1051_9808" x1="-10.63" y1="31.6043" x2="132.718" y2="1.59763" gradientUnits="userSpaceOnUse">
<stop stop-color="#1B0051"/>
<stop offset="0.44" stop-color="#3A0079"/>
<stop offset="0.79" stop-color="#4F0093"/>
<stop offset="1" stop-color="#57009D"/>
</linearGradient>
<linearGradient id="paint12_linear_1051_9808" x1="-9.35388" y1="37.7092" x2="133.995" y2="7.70248" gradientUnits="userSpaceOnUse">
<stop stop-color="#1B0051"/>
<stop offset="0.44" stop-color="#3A0079"/>
<stop offset="0.79" stop-color="#4F0093"/>
<stop offset="1" stop-color="#57009D"/>
</linearGradient>
<linearGradient id="paint13_linear_1051_9808" x1="-8.78276" y1="40.4314" x2="134.566" y2="10.4247" gradientUnits="userSpaceOnUse">
<stop stop-color="#1B0051"/>
<stop offset="0.44" stop-color="#3A0079"/>
<stop offset="0.79" stop-color="#4F0093"/>
<stop offset="1" stop-color="#57009D"/>
</linearGradient>
<radialGradient id="paint14_radial_1051_9808" cx="0" cy="0" r="1" gradientUnits="userSpaceOnUse" gradientTransform="translate(105.711 -1.14441e-05) scale(49.312 49.312)">
<stop stop-color="#2663FF"/>
<stop offset="0.13" stop-color="#2663FF" stop-opacity="0.84"/>
<stop offset="0.37" stop-color="#2663FF" stop-opacity="0.54"/>
<stop offset="0.59" stop-color="#2663FF" stop-opacity="0.31"/>
<stop offset="0.77" stop-color="#2663FF" stop-opacity="0.14"/>
<stop offset="0.92" stop-color="#2663FF" stop-opacity="0.04"/>
<stop offset="1" stop-color="#2663FF" stop-opacity="0"/>
</radialGradient>
<clipPath id="clip0_1051_9808">
<rect width="121" height="24" fill="white"/>
</clipPath>
</defs>
</svg>
