<svg width="307" height="346" viewBox="0 0 307 346" fill="none" xmlns="http://www.w3.org/2000/svg">
<path d="M153.401 0C57.5252 38.3501 38.3501 19.1751 38.3501 19.1751L0 134.225L38.3501 230.101L153.401 345.151L268.451 230.101L306.801 134.225L268.451 19.1751C268.451 19.1751 249.276 38.3501 153.401 0Z" fill="#03081A"/>
<path d="M249.872 192.844C249.971 192.605 249.983 192.357 249.953 192.114C249.95 192.085 249.968 192.059 249.965 192.03L238.804 128.468L245.116 50.0703C245.162 49.4922 244.862 48.9404 244.351 48.666C243.84 48.3945 243.215 48.4441 242.757 48.8061L189.14 91.0693H119.339L65.7251 48.8061C65.2697 48.447 64.642 48.3945 64.1311 48.666C63.6201 48.9404 63.3194 49.4922 63.3661 50.0703L69.6782 128.468L58.5168 192.03C58.511 192.059 58.5314 192.085 58.5285 192.114C58.4993 192.357 58.508 192.605 58.6102 192.844C58.6131 192.85 58.619 192.85 58.619 192.856C58.6832 193.008 58.8204 193.113 58.9343 193.235C59.016 193.323 59.0686 193.44 59.1679 193.504C59.1708 193.507 59.1737 193.513 59.1766 193.516L105.869 222.912L123.523 278.392C123.535 278.43 123.576 278.454 123.59 278.489C123.654 278.649 123.762 278.775 123.879 278.903C123.935 278.964 123.955 279.052 124.019 279.105L146.403 296.379C146.66 296.575 146.973 296.683 147.297 296.683H161.179C161.5 296.683 161.816 296.575 162.073 296.379L184.457 279.105C184.524 279.052 184.541 278.964 184.597 278.903C184.716 278.775 184.822 278.649 184.886 278.489C184.9 278.451 184.941 278.43 184.953 278.392L202.607 222.912L249.299 193.516C249.302 193.513 249.305 193.507 249.308 193.504C249.407 193.44 249.46 193.323 249.542 193.235C249.656 193.113 249.793 193.008 249.857 192.856C249.863 192.85 249.869 192.847 249.872 192.844ZM201.781 219.984L179.753 188.488L179.73 188.114L207.165 176.588L245.367 192.543L201.781 219.984ZM167.12 288.797L155.699 283.014V279.166H161.179C161.451 279.166 161.719 279.09 161.95 278.947L171.792 272.839L180.95 278.127L167.12 288.797ZM127.532 278.127L136.69 272.839L146.532 278.947C146.763 279.09 147.028 279.166 147.303 279.166H152.78V283.014L141.358 288.797L127.532 278.127ZM63.1121 192.543L101.314 176.588L128.749 188.114L128.726 188.488L106.698 219.984L63.1121 192.543ZM206.061 173.888L177.835 185.747L173.57 179.648L178.892 164.422L217.453 147.851L206.061 173.888ZM135.084 184.494L135.254 270.296L126.53 275.333L131.593 189.487L135.084 184.494ZM129.756 158.373L152.66 169.067L141.504 259.249L138.162 265.406L137.992 179.87C137.992 179.82 137.972 179.773 137.969 179.727C137.963 179.657 137.951 179.592 137.934 179.525C137.922 179.481 137.925 179.435 137.911 179.391L132.13 162.852C131.996 162.466 131.704 162.154 131.327 161.993L109.541 152.63L129.756 158.373ZM154.239 180.083L163.909 258.245H144.57L154.239 180.083ZM178.723 158.373L198.932 152.63L177.149 161.993C176.772 162.154 176.48 162.466 176.346 162.852L170.565 179.391C170.551 179.435 170.554 179.481 170.542 179.525C170.525 179.592 170.516 179.657 170.507 179.727C170.501 179.776 170.484 179.823 170.484 179.87L170.314 265.406L166.972 259.249L155.816 169.067L178.723 158.373ZM162.919 261.164L154.239 274.965L145.56 261.164H162.919ZM143.011 262.592L151.597 276.246H147.714L138.655 270.623L143.011 262.592ZM165.468 262.592L169.824 270.623L160.765 276.246H156.882L165.468 262.592ZM173.394 184.494L176.886 189.487L181.949 275.333L173.225 270.296L173.394 184.494ZM219.517 143.746L180.054 154.96L190.664 95.1303L235.087 128.673L219.517 143.746ZM176.907 156L154.239 166.583L131.572 156L120.574 93.9888H187.905L176.907 156ZM128.422 154.96L88.9587 143.746L73.3889 128.673L117.812 95.1303L128.422 154.96ZM129.587 164.422L134.909 179.648L130.644 185.747L102.418 173.888L91.0258 147.851L129.587 164.422ZM128.399 194.053L123.92 270.013L108.706 222.206L128.399 194.053ZM180.08 194.053L199.772 222.206L184.559 270.013L180.08 194.053ZM246.625 189.904L209.097 174.232L221.494 145.901L236.372 131.502L246.625 189.904ZM236.089 125.771L192.036 92.5057L241.933 53.1708L236.089 125.771ZM66.5455 53.1708L116.443 92.5057L72.3875 125.771L66.5455 53.1708ZM72.1101 131.499L86.9881 145.901L99.3844 174.229L61.8538 189.904L72.1101 131.499ZM160.683 293.764H147.796L143.922 290.774L154.239 285.548L164.557 290.774L160.683 293.764Z" fill="#B034EB"/>
</svg>
