<?xml version="1.0" encoding="UTF-8"?>
<svg id="Layer_2" data-name="Layer 2" xmlns="http://www.w3.org/2000/svg" viewBox="0 0 1378.78 279.12">
  <defs>
    <style>
      .cls-1 {
        stroke-width: 0px;
      }
    </style>
  </defs>
  <g id="Layer_1-2" data-name="Layer 1">
    <g>
      <g>
        <path class="cls-1" d="m134.98,177.96c0,17.79-6.11,31.35-18.3,40.65-11.18,8.69-26.28,13.03-45.31,13.03-25.97.11-51.19-8.77-71.37-25.13l20.17-31.03c18.19,13.24,35.68,19.86,52.44,19.86,13.23,0,19.86-4.14,19.86-12.41v-.62c0-4.54-3.42-8.38-10.24-11.48-2.49-1.04-10.55-3.62-24.2-7.76-33.1-9.71-49.65-26.37-49.65-49.96v-.62c-.55-15.16,6.13-29.67,17.99-39.11,11.18-9.1,25.46-13.65,42.83-13.65,22.16-.05,43.82,6.66,62.06,19.24l-18,32.58c-17.59-10.34-32.58-15.52-45-15.52-11.58,0-17.37,3.82-17.37,11.48v.62c0,4.15,3.41,7.87,10.24,11.17,2.68,1.24,10.55,4.14,23.58,8.69,15.3,5.17,26.58,10.55,33.82,16.14,10.51,7.77,16.64,20.13,16.45,33.2v.62Z"/>
        <path class="cls-1" d="m249.68,232.57c-6.41,17.17-13.55,29.17-21.41,36-8.28,7.03-19.35,10.53-33.2,10.55-14.75.03-29.22-3.93-41.89-11.48l15.83-34.14c6,3.96,12.97,6.21,20.16,6.51,7.22.17,13.76-4.16,16.45-10.85L140.45,62.22h49.97l37.86,113.26,36.3-113.26h49.02l-63.92,170.35Z"/>
        <path class="cls-1" d="m446.48,177.96c0,17.79-6.11,31.35-18.3,40.65-11.18,8.69-26.28,13.03-45.31,13.03-25.97.11-51.19-8.77-71.37-25.13l20.17-31.03c18.19,13.24,35.68,19.86,52.44,19.86,13.23,0,19.86-4.14,19.86-12.41v-.62c0-4.54-3.42-8.38-10.24-11.48-2.49-1.04-10.55-3.62-24.2-7.76-33.1-9.71-49.65-26.37-49.65-49.96v-.62c-.55-15.16,6.13-29.66,17.99-39.11,11.18-9.1,25.46-13.65,42.83-13.65,22.16-.05,43.82,6.66,62.06,19.24l-18,32.58c-17.59-10.34-32.58-15.52-45-15.52-11.58,0-17.37,3.82-17.37,11.48v.62c0,4.15,3.41,7.87,10.24,11.17,2.68,1.24,10.55,4.14,23.58,8.69,15.3,5.17,26.58,10.55,33.82,16.14,10.51,7.77,16.64,20.13,16.45,33.2v.62Z"/>
        <path class="cls-1" d="m591.02,145.06c.46-12.17-3.76-24.05-11.78-33.2-7.16-8.26-17.62-12.92-28.56-12.73-10.86-.21-21.28,4.32-28.55,12.41-8.24,9.17-12.58,21.19-12.1,33.52v.62c-.45,12.22,3.89,24.14,12.1,33.2,14.18,15.78,38.45,17.06,54.22,2.89,1.01-.91,1.98-1.88,2.89-2.89,8.03-9.15,12.24-21.04,11.78-33.2v-.62Zm-.62,83.47v-14.58c-13.25,11.8-30.52,17.69-51.82,17.69-19.8.37-38.85-7.62-52.44-22.04-15.52-16.14-23.27-37.44-23.27-63.92v-.62c0-26.48,7.66-47.78,22.96-63.92,13.69-14.45,32.85-22.45,52.76-22.04,20.69,0,37.96,5.17,51.82,15.52V2.01h47.17v226.53h-47.17Z"/>
        <path class="cls-1" d="m667.36,62.21h47.17v166.33h-47.17V62.21Zm-1.24-60.2h49.65v41.89h-49.65V2.01Z"/>
        <path class="cls-1" d="m871.31,136.68c.29-10.48-4.02-20.58-11.78-27.62-16.52-14.48-41.21-14.48-57.73,0-7.61,7.13-11.79,17.19-11.48,27.62v.62c-.35,10.53,3.82,20.7,11.48,27.93,7.89,7.13,18.24,10.92,28.86,10.56,10.68.34,21.06-3.56,28.86-10.86,7.77-7.05,12.08-17.14,11.78-27.63v-.62Zm46.55,54.31c0,30.83-7.76,53.27-23.27,67.34-14.9,13.65-38.06,20.48-69.51,20.48-25.57.37-50.83-5.6-73.55-17.37l16.14-38.48c17.08,9.88,36.44,15.12,56.17,15.2,31.65,0,47.47-13.03,47.47-39.11v-1.86c-14.89,11.8-32.99,17.69-54.3,17.69-19.19.5-37.78-6.77-51.52-20.17-14.89-14.48-22.34-33.61-22.34-57.41v-.62c0-23.78,7.56-42.92,22.65-57.4,13.64-13.37,32.11-20.64,51.2-20.17,19.06-.48,37.8,4.94,53.68,15.52v-12.41h47.17v128.78Z"/>
      </g>
      <g>
        <path class="cls-1" d="m1024.83,58.38c-3.3-1.41-5.91-3.44-7.82-6.09-1.92-2.65-2.91-5.78-2.96-9.39h12.69c.17,2.43,1.03,4.34,2.58,5.75,1.55,1.41,3.68,2.12,6.39,2.12s4.93-.66,6.52-1.99c1.58-1.32,2.37-3.06,2.37-5.2,0-1.75-.54-3.19-1.61-4.32-1.07-1.13-2.41-2.02-4.02-2.67-1.61-.65-3.82-1.37-6.64-2.16-3.84-1.13-6.95-2.24-9.35-3.34s-4.46-2.76-6.17-4.99c-1.72-2.23-2.58-5.2-2.58-8.93,0-3.5.87-6.54,2.62-9.14,1.75-2.59,4.2-4.58,7.36-5.96,3.16-1.38,6.77-2.07,10.83-2.07,6.09,0,11.04,1.48,14.85,4.44,3.81,2.96,5.91,7.09,6.3,12.4h-13.03c-.11-2.03-.97-3.71-2.58-5.03-1.61-1.32-3.74-1.99-6.39-1.99-2.31,0-4.16.59-5.54,1.78s-2.07,2.91-2.07,5.16c0,1.58.52,2.89,1.57,3.93,1.04,1.04,2.34,1.89,3.89,2.54,1.55.65,3.74,1.4,6.56,2.24,3.83,1.13,6.97,2.26,9.39,3.38,2.42,1.13,4.51,2.82,6.26,5.08,1.75,2.26,2.62,5.22,2.62,8.88,0,3.16-.82,6.09-2.45,8.8-1.64,2.71-4.03,4.87-7.19,6.47-3.16,1.61-6.91,2.41-11.25,2.41-4.12,0-7.83-.7-11.13-2.12Z"/>
        <path class="cls-1" d="m1078.94,10.41v14.81h19.88v9.39h-19.88v15.65h22.42v9.65h-34.27V.76h34.27v9.64h-22.42Z"/>
        <path class="cls-1" d="m1113.16,14.68c2.62-4.6,6.2-8.18,10.75-10.75,4.54-2.57,9.63-3.85,15.27-3.85,6.6,0,12.38,1.69,17.35,5.08,4.96,3.38,8.43,8.07,10.41,14.05h-13.62c-1.35-2.82-3.26-4.93-5.71-6.35-2.45-1.41-5.29-2.12-8.5-2.12-3.44,0-6.5.8-9.18,2.41-2.68,1.61-4.77,3.88-6.26,6.81-1.5,2.93-2.24,6.37-2.24,10.32s.75,7.32,2.24,10.28c1.49,2.96,3.58,5.24,6.26,6.85,2.68,1.61,5.74,2.41,9.18,2.41,3.22,0,6.05-.72,8.5-2.16,2.45-1.44,4.36-3.57,5.71-6.39h13.62c-1.97,6.04-5.43,10.73-10.36,14.09-4.94,3.36-10.73,5.03-17.39,5.03-5.64,0-10.73-1.28-15.27-3.85-4.54-2.57-8.12-6.13-10.75-10.7-2.62-4.57-3.93-9.76-3.93-15.57s1.31-11.01,3.93-15.61Z"/>
        <path class="cls-1" d="m1188.76.85v36.55c0,4.01,1.04,7.06,3.13,9.18,2.09,2.12,5.02,3.17,8.8,3.17s6.8-1.06,8.88-3.17,3.13-5.17,3.13-9.18V.85h11.93v36.47c0,5.02-1.09,9.26-3.26,12.73s-5.08,6.08-8.71,7.83c-3.64,1.75-7.69,2.62-12.14,2.62s-8.39-.87-11.97-2.62c-3.58-1.75-6.42-4.36-8.5-7.83s-3.13-7.71-3.13-12.73V.85h11.85Z"/>
        <path class="cls-1" d="m1266.51,59.9l-13.03-23.01h-5.58v23.01h-11.85V.85h22.17c4.57,0,8.46.8,11.67,2.41,3.22,1.61,5.63,3.78,7.23,6.52,1.61,2.74,2.41,5.8,2.41,9.18,0,3.89-1.13,7.4-3.38,10.53s-5.61,5.29-10.07,6.47l14.13,23.94h-13.71Zm-18.61-31.9h9.9c3.22,0,5.61-.77,7.19-2.33,1.58-1.55,2.37-3.71,2.37-6.47s-.79-4.81-2.37-6.3c-1.58-1.49-3.97-2.24-7.19-2.24h-9.9v17.35Z"/>
        <path class="cls-1" d="m1302.13,10.41v14.81h19.88v9.39h-19.88v15.65h22.42v9.65h-34.27V.76h34.27v9.64h-22.42Z"/>
        <path class="cls-1" d="m1027.41,95.01v14.81h19.88v9.39h-19.88v15.65h22.42v9.65h-34.27v-59.14h34.27v9.64h-22.42Z"/>
        <path class="cls-1" d="m1113.63,85.45l-21.66,59.06h-14.38l-21.66-59.06h12.69l16.25,46.96,16.16-46.96h12.61Z"/>
        <path class="cls-1" d="m1132.58,95.01v14.81h19.88v9.39h-19.88v15.65h22.42v9.65h-34.27v-59.14h34.27v9.64h-22.42Z"/>
        <path class="cls-1" d="m1196.2,144.51l-13.03-23.01h-5.58v23.01h-11.84v-59.06h22.17c4.57,0,8.46.8,11.68,2.41,3.22,1.61,5.63,3.78,7.23,6.52,1.61,2.74,2.41,5.8,2.41,9.18,0,3.89-1.13,7.4-3.38,10.53-2.26,3.13-5.61,5.29-10.07,6.47l14.13,23.94h-13.71Zm-18.61-31.9h9.9c3.22,0,5.61-.77,7.19-2.33,1.58-1.55,2.37-3.71,2.37-6.47s-.79-4.81-2.37-6.3c-1.58-1.49-3.98-2.24-7.19-2.24h-9.9v17.35Z"/>
        <path class="cls-1" d="m1266.93,85.45l-19.97,38.5v20.56h-11.84v-20.56l-20.05-38.5h13.37l12.69,26.99,12.61-26.99h13.2Z"/>
        <path class="cls-1" d="m1024.83,227.59c-3.3-1.41-5.91-3.44-7.82-6.09-1.92-2.65-2.91-5.78-2.96-9.39h12.69c.17,2.43,1.03,4.34,2.58,5.75,1.55,1.41,3.68,2.12,6.39,2.12s4.93-.66,6.52-1.99c1.58-1.32,2.37-3.06,2.37-5.2,0-1.75-.54-3.19-1.61-4.32-1.07-1.13-2.41-2.02-4.02-2.67-1.61-.65-3.82-1.37-6.64-2.16-3.84-1.13-6.95-2.24-9.35-3.34s-4.46-2.76-6.17-4.99c-1.72-2.23-2.58-5.2-2.58-8.93,0-3.5.87-6.54,2.62-9.14,1.75-2.59,4.2-4.58,7.36-5.96,3.16-1.38,6.77-2.07,10.83-2.07,6.09,0,11.04,1.48,14.85,4.44,3.81,2.96,5.91,7.09,6.3,12.4h-13.03c-.11-2.03-.97-3.71-2.58-5.03-1.61-1.32-3.74-1.99-6.39-1.99-2.31,0-4.16.59-5.54,1.78s-2.07,2.91-2.07,5.16c0,1.58.52,2.89,1.57,3.93,1.04,1.04,2.34,1.89,3.89,2.54,1.55.65,3.74,1.4,6.56,2.24,3.83,1.13,6.97,2.26,9.39,3.38,2.42,1.13,4.51,2.82,6.26,5.08,1.75,2.26,2.62,5.22,2.62,8.88,0,3.16-.82,6.09-2.45,8.8-1.64,2.71-4.03,4.87-7.19,6.47-3.16,1.61-6.91,2.41-11.25,2.41-4.12,0-7.83-.7-11.13-2.12Z"/>
        <path class="cls-1" d="m1078.94,179.62v14.81h19.88v9.39h-19.88v15.65h22.42v9.65h-34.27v-59.14h34.27v9.64h-22.42Z"/>
        <path class="cls-1" d="m1113.16,183.89c2.62-4.6,6.2-8.18,10.75-10.75,4.54-2.57,9.63-3.85,15.27-3.85,6.6,0,12.38,1.69,17.35,5.08,4.96,3.38,8.43,8.07,10.41,14.05h-13.62c-1.35-2.82-3.26-4.93-5.71-6.35-2.45-1.41-5.29-2.12-8.5-2.12-3.44,0-6.5.8-9.18,2.41-2.68,1.61-4.77,3.88-6.26,6.81-1.5,2.93-2.24,6.37-2.24,10.32s.75,7.32,2.24,10.28c1.49,2.96,3.58,5.24,6.26,6.85,2.68,1.61,5.74,2.41,9.18,2.41,3.22,0,6.05-.72,8.5-2.16s4.36-3.57,5.71-6.39h13.62c-1.97,6.04-5.43,10.73-10.36,14.09-4.94,3.36-10.73,5.03-17.39,5.03-5.64,0-10.73-1.28-15.27-3.85-4.54-2.57-8.12-6.13-10.75-10.7-2.62-4.57-3.93-9.76-3.93-15.57s1.31-11.01,3.93-15.61Z"/>
        <path class="cls-1" d="m1189.26,225.82c-4.63-2.59-8.29-6.19-11-10.79-2.71-4.6-4.06-9.8-4.06-15.61s1.35-10.93,4.06-15.53c2.71-4.6,6.37-8.19,11-10.79,4.62-2.59,9.7-3.89,15.23-3.89s10.67,1.3,15.27,3.89c4.6,2.6,8.23,6.19,10.91,10.79,2.68,4.6,4.02,9.77,4.02,15.53s-1.34,11.01-4.02,15.61c-2.68,4.6-6.33,8.19-10.96,10.79-4.62,2.6-9.7,3.89-15.23,3.89s-10.6-1.3-15.23-3.89Zm24.62-9.1c2.71-1.61,4.82-3.9,6.35-6.89,1.52-2.99,2.28-6.46,2.28-10.41s-.76-7.4-2.28-10.36-3.64-5.23-6.35-6.81c-2.71-1.58-5.84-2.37-9.39-2.37s-6.7.79-9.43,2.37c-2.74,1.58-4.87,3.85-6.39,6.81s-2.28,6.42-2.28,10.36.76,7.42,2.28,10.41c1.52,2.99,3.65,5.29,6.39,6.89,2.73,1.61,5.88,2.41,9.43,2.41s6.68-.8,9.39-2.41Z"/>
        <path class="cls-1" d="m1294.01,229.12h-11.84l-26.82-40.53v40.53h-11.84v-59.14h11.84l26.82,40.61v-40.61h11.84v59.14Z"/>
        <path class="cls-1" d="m1342.7,173.7c4.71,2.43,8.35,5.88,10.91,10.36,2.57,4.48,3.85,9.69,3.85,15.61s-1.28,11.1-3.85,15.52c-2.57,4.43-6.21,7.86-10.91,10.28-4.71,2.43-10.17,3.64-16.37,3.64h-20.64v-59.06h20.64c6.2,0,11.66,1.21,16.37,3.64Zm-2.41,40.27c3.38-3.38,5.08-8.15,5.08-14.3s-1.69-10.96-5.08-14.43-8.18-5.2-14.38-5.2h-8.38v39h8.38c6.2,0,11-1.69,14.38-5.08Z"/>
        <path class="cls-1" d="m1366.3,227.72c-1.38-1.32-2.07-2.97-2.07-4.95s.69-3.62,2.07-4.95c1.38-1.32,3.14-1.99,5.29-1.99s3.81.66,5.16,1.99c1.35,1.33,2.03,2.98,2.03,4.95s-.68,3.62-2.03,4.95c-1.35,1.33-3.07,1.99-5.16,1.99s-3.91-.66-5.29-1.99Z"/>
      </g>
    </g>
  </g>
</svg>