<svg width="712" height="215" viewBox="0 0 712 215" fill="none" xmlns="http://www.w3.org/2000/svg">
<path d="M12 159H216V173H12V159Z" fill="black"/>
<path d="M493 159H702V173H493V159Z" fill="black"/>
<path d="M301.318 166.909C301.318 173.311 300.087 178.737 297.625 183.188C295.163 187.638 291.83 191.019 287.625 193.33C283.439 195.64 278.742 196.795 273.534 196.795C268.307 196.795 263.6 195.631 259.415 193.301C255.229 190.972 251.905 187.591 249.443 183.159C247 178.708 245.778 173.292 245.778 166.909C245.778 160.508 247 155.081 249.443 150.631C251.905 146.18 255.229 142.799 259.415 140.489C263.6 138.178 268.307 137.023 273.534 137.023C278.742 137.023 283.439 138.178 287.625 140.489C291.83 142.799 295.163 146.18 297.625 150.631C300.087 155.081 301.318 160.508 301.318 166.909ZM286.943 166.909C286.943 163.121 286.403 159.92 285.324 157.307C284.263 154.693 282.729 152.714 280.722 151.369C278.733 150.025 276.337 149.352 273.534 149.352C270.75 149.352 268.354 150.025 266.347 151.369C264.339 152.714 262.795 154.693 261.716 157.307C260.655 159.92 260.125 163.121 260.125 166.909C260.125 170.697 260.655 173.898 261.716 176.511C262.795 179.125 264.339 181.104 266.347 182.449C268.354 183.794 270.75 184.466 273.534 184.466C276.337 184.466 278.733 183.794 280.722 182.449C282.729 181.104 284.263 179.125 285.324 176.511C286.403 173.898 286.943 170.697 286.943 166.909ZM340.977 155.261C340.788 153.178 339.945 151.559 338.449 150.403C336.972 149.229 334.86 148.642 332.114 148.642C330.295 148.642 328.78 148.879 327.568 149.352C326.356 149.826 325.447 150.479 324.841 151.312C324.235 152.127 323.922 153.064 323.903 154.125C323.866 154.996 324.036 155.763 324.415 156.426C324.813 157.089 325.381 157.676 326.119 158.188C326.877 158.68 327.786 159.116 328.847 159.494C329.907 159.873 331.1 160.205 332.426 160.489L337.426 161.625C340.305 162.25 342.843 163.083 345.04 164.125C347.256 165.167 349.112 166.407 350.608 167.847C352.123 169.286 353.269 170.943 354.045 172.818C354.822 174.693 355.22 176.795 355.239 179.125C355.22 182.799 354.292 185.953 352.455 188.585C350.617 191.218 347.975 193.235 344.528 194.636C341.1 196.038 336.962 196.739 332.114 196.739C327.246 196.739 323.004 196.009 319.386 194.551C315.769 193.093 312.956 190.877 310.949 187.903C308.941 184.93 307.909 181.17 307.852 176.625H321.318C321.432 178.5 321.934 180.062 322.824 181.312C323.714 182.562 324.936 183.509 326.489 184.153C328.061 184.797 329.879 185.119 331.943 185.119C333.837 185.119 335.447 184.864 336.773 184.352C338.117 183.841 339.15 183.131 339.869 182.222C340.589 181.312 340.958 180.271 340.977 179.097C340.958 177.998 340.617 177.061 339.955 176.284C339.292 175.489 338.269 174.807 336.886 174.239C335.523 173.652 333.78 173.112 331.659 172.619L325.58 171.199C320.542 170.044 316.574 168.178 313.676 165.602C310.778 163.008 309.339 159.504 309.358 155.091C309.339 151.492 310.305 148.339 312.256 145.631C314.206 142.922 316.905 140.811 320.352 139.295C323.799 137.78 327.729 137.023 332.142 137.023C336.65 137.023 340.561 137.79 343.875 139.324C347.208 140.839 349.794 142.97 351.631 145.716C353.468 148.462 354.405 151.644 354.443 155.261H340.977ZM362.341 196V137.818H376.403V184.58H400.608V196H362.341ZM460.537 166.909C460.537 173.311 459.306 178.737 456.844 183.188C454.382 187.638 451.048 191.019 446.844 193.33C442.658 195.64 437.961 196.795 432.753 196.795C427.526 196.795 422.819 195.631 418.634 193.301C414.448 190.972 411.124 187.591 408.662 183.159C406.219 178.708 404.997 173.292 404.997 166.909C404.997 160.508 406.219 155.081 408.662 150.631C411.124 146.18 414.448 142.799 418.634 140.489C422.819 138.178 427.526 137.023 432.753 137.023C437.961 137.023 442.658 138.178 446.844 140.489C451.048 142.799 454.382 146.18 456.844 150.631C459.306 155.081 460.537 160.508 460.537 166.909ZM446.162 166.909C446.162 163.121 445.622 159.92 444.543 157.307C443.482 154.693 441.948 152.714 439.94 151.369C437.952 150.025 435.556 149.352 432.753 149.352C429.969 149.352 427.573 150.025 425.565 151.369C423.558 152.714 422.014 154.693 420.935 157.307C419.874 159.92 419.344 163.121 419.344 166.909C419.344 170.697 419.874 173.898 420.935 176.511C422.014 179.125 423.558 181.104 425.565 182.449C427.573 183.794 429.969 184.466 432.753 184.466C435.556 184.466 437.952 183.794 439.94 182.449C441.948 181.104 443.482 179.125 444.543 176.511C445.622 173.898 446.162 170.697 446.162 166.909Z" fill="black"/>
<path d="M30.2668 104.377C22.6505 104.377 16.6071 103.011 12.1367 100.279C7.74902 97.4642 4.64454 93.5732 2.82325 88.606C1.00196 83.5561 0.0913086 77.6369 0.0913086 70.8484V34.5881C0.0913086 27.6341 1.00196 21.6735 2.82325 16.7063C4.64454 11.6563 7.74902 7.7654 12.1367 5.03346C16.6071 2.30152 22.6505 0.935547 30.2668 0.935547C37.7176 0.935547 43.5126 2.17734 47.6519 4.66093C51.874 7.06172 54.8543 10.456 56.5928 14.8436C58.3313 19.2313 59.2006 24.2812 59.2006 29.9935V38.686H37.4692V28.6275C37.4692 26.6406 37.3451 24.7366 37.0967 22.9153C36.9311 21.094 36.3516 19.6038 35.3582 18.4448C34.3648 17.203 32.6676 16.5821 30.2668 16.5821C27.9488 16.5821 26.2103 17.203 25.0513 18.4448C23.9751 19.6866 23.2714 21.2595 22.9403 23.1636C22.6919 24.9849 22.5677 26.9304 22.5677 29V76.3123C22.5677 78.5475 22.7333 80.6172 23.0645 82.5213C23.4784 84.3426 24.2235 85.8327 25.2997 86.9917C26.4587 88.0679 28.1144 88.606 30.2668 88.606C32.5849 88.606 34.2406 88.0265 35.234 86.8675C36.2274 85.6257 36.8483 84.0528 37.0967 82.1487C37.3451 80.2446 37.4692 78.2992 37.4692 76.3123V65.7571H59.2006V74.4496C59.2006 80.1619 58.3313 85.2946 56.5928 89.8478C54.9371 94.3183 51.9982 97.8781 47.7761 100.527C43.6368 103.094 37.8004 104.377 30.2668 104.377Z" fill="black"/>
<path d="M71.4293 102.887V2.30151H93.6574V87.861H116.755V102.887H71.4293Z" fill="black"/>
<path d="M153.718 104.377C146.185 104.377 140.224 103.052 135.837 100.403C131.449 97.7539 128.303 93.9457 126.399 88.9786C124.495 84.0114 123.543 78.0922 123.543 71.221V33.843C123.543 26.889 124.495 20.9698 126.399 16.0854C128.303 11.201 131.449 7.47565 135.837 4.90928C140.224 2.26012 146.185 0.935547 153.718 0.935547C161.335 0.935547 167.337 2.26012 171.724 4.90928C176.195 7.47565 179.382 11.201 181.286 16.0854C183.19 20.9698 184.142 26.889 184.142 33.843V71.221C184.142 78.0922 183.19 84.0114 181.286 88.9786C179.382 93.9457 176.195 97.7539 171.724 100.403C167.337 103.052 161.335 104.377 153.718 104.377ZM153.718 88.606C156.036 88.606 157.734 88.0265 158.81 86.8675C159.886 85.7085 160.59 84.2184 160.921 82.3971C161.252 80.5758 161.418 78.7131 161.418 76.809V28.3791C161.418 26.3923 161.252 24.5296 160.921 22.7911C160.59 20.9698 159.886 19.4796 158.81 18.3206C157.734 17.1616 156.036 16.5821 153.718 16.5821C151.566 16.5821 149.952 17.1616 148.875 18.3206C147.799 19.4796 147.096 20.9698 146.764 22.7911C146.433 24.5296 146.268 26.3923 146.268 28.3791V76.809C146.268 78.7131 146.392 80.5758 146.64 82.3971C146.971 84.2184 147.634 85.7085 148.627 86.8675C149.703 88.0265 151.4 88.606 153.718 88.606Z" fill="black"/>
<path d="M226.728 104.377C219.029 104.377 212.985 103.135 208.598 100.651C204.293 98.085 201.271 94.4011 199.533 89.5995C197.794 84.7151 196.925 78.7545 196.925 71.7177V2.30151H218.905V75.0705C218.905 77.1402 219.07 79.2098 219.401 81.2795C219.733 83.3491 220.436 85.0462 221.512 86.3708C222.671 87.6954 224.41 88.3577 226.728 88.3577C229.129 88.3577 230.867 87.6954 231.944 86.3708C233.02 85.0462 233.682 83.3491 233.93 81.2795C234.262 79.2098 234.427 77.1402 234.427 75.0705V2.30151H256.531V71.7177C256.531 78.7545 255.62 84.7151 253.799 89.5995C252.061 94.4011 249.039 98.085 244.734 100.651C240.429 103.135 234.427 104.377 226.728 104.377Z" fill="black"/>
<path d="M270.674 102.887V2.30151H296.131C304.906 2.30151 311.736 3.41913 316.62 5.65435C321.505 7.80679 324.94 11.2424 326.927 15.9612C328.914 20.5972 329.907 26.6406 329.907 34.0914V70.6001C329.907 78.1336 328.914 84.3012 326.927 89.1028C324.94 93.8216 321.505 97.2986 316.62 99.5338C311.819 101.769 305.071 102.887 296.379 102.887H270.674ZM292.902 87.4884H296.379C299.773 87.4884 302.215 86.9917 303.705 85.9983C305.196 85.0048 306.106 83.5147 306.437 81.5278C306.851 79.541 307.058 77.0574 307.058 74.0771V30.2418C307.058 27.2615 306.81 24.8607 306.313 23.0394C305.899 21.2181 304.947 19.8936 303.457 19.0657C301.967 18.2378 299.566 17.8239 296.255 17.8239H292.902V87.4884Z" fill="black"/>
<path d="M375.207 102.887V2.30151H390.854L411.468 50.7314V2.30151H429.846V102.887H414.821L394.207 50.7314V102.887H375.207Z" fill="black"/>
<path d="M439.973 102.887L458.972 2.30151H484.305L503.056 102.887H482.566L479.213 81.652H464.436L460.959 102.887H439.973ZM466.423 68.3648H477.102L471.763 29.1242L466.423 68.3648Z" fill="black"/>
<path d="M516.94 102.887V18.8173H501.791V2.30151H554.318V18.8173H539.293V102.887H516.94Z" fill="black"/>
<path d="M563.298 102.887V2.30151H585.526V102.887H563.298Z" fill="black"/>
<path d="M613.936 102.887L595.806 2.30151H614.805L625.609 70.6001L635.667 2.30151H655.784L637.406 102.887H613.936Z" fill="black"/>
<path d="M665.889 102.887V2.30151H711.09V17.4514H688.117V42.4114H705.626V57.8096H688.117V87.861H711.338V102.887H665.889Z" fill="black"/>
</svg>
